<?xml version="1.0" ?><svg id="Layer_1" style="enable-background:new 0 0 66 66;" version="1.1" viewBox="0 0 66 66" xml:space="preserve" xmlns="http://www.w3.org/2000/svg" xmlns:xlink="http://www.w3.org/1999/xlink"><g><path d="M62.04,30.51c1.35,0,2.46-1.1,2.46-2.46V17.92c0-1.35-1.1-2.45-2.46-2.45h-9v-2.27h2.27c0.18,0,0.34-0.1,0.43-0.25   l2.77-4.79c0.09-0.15,0.09-0.35,0-0.5l-2.77-4.78c-0.09-0.15-0.25-0.25-0.43-0.25h-5.53c-0.18,0-0.34,0.1-0.43,0.25l-2.77,4.78   c-0.09,0.15-0.09,0.35,0,0.5l2.77,4.79c0.09,0.15,0.25,0.25,0.43,0.25h2.27v2.27H13.11v-2.27h2.27c0.18,0,0.34-0.1,0.43-0.25   l2.77-4.79c0.09-0.15,0.09-0.35,0-0.5l-2.77-4.78c-0.09-0.15-0.25-0.25-0.43-0.25H9.85c-0.18,0-0.34,0.1-0.43,0.25L6.65,7.65   c-0.09,0.15-0.09,0.35,0,0.5l2.77,4.79c0.09,0.15,0.25,0.25,0.43,0.25h2.27v2.27H3.96c-1.35,0-2.46,1.1-2.46,2.45v10.14   c0,1.35,1.1,2.46,2.46,2.46h4.44h1.35v3.62H3.96c-1.35,0-2.46,1.1-2.46,2.46v10.14c0,1.35,1.1,2.46,2.46,2.46h4.44h1.35v8.81H7.79   c-1.14,0-2.07,0.93-2.07,2.07v2.82c0,0.28,0.22,0.5,0.5,0.5H19c0.28,0,0.5-0.22,0.5-0.5v-2.82c0-1.14-0.93-2.07-2.07-2.07h-1.94   v-8.81h34.19v8.81h-1.94c-1.14,0-2.07,0.93-2.07,2.07v2.82c0,0.28,0.22,0.5,0.5,0.5h12.77c0.28,0,0.5-0.22,0.5-0.5v-2.82   c0-1.14-0.93-2.07-2.07-2.07h-1.94v-8.81h6.63c1.35,0,2.46-1.1,2.46-2.46V36.59c0-1.35-1.1-2.46-2.46-2.46h-6.63v-3.62H62.04z    M53.61,16.46h5.73L48.44,29.51H42.7L53.61,16.46z M49.67,30.51v3.62H15.48v-3.62H49.67z M50.07,12.19L47.59,7.9l2.48-4.28h4.95   L57.5,7.9l-2.48,4.29H50.07z M52.3,16.46L41.4,29.51h-8.28l10.89-13.05H52.3z M42.71,16.46L31.82,29.51h-5.74l10.89-13.05H42.71z    M35.67,16.46L24.78,29.51H16.5l10.89-13.05H35.67z M10.13,12.19L7.66,7.9l2.48-4.28h4.95l2.48,4.28l-2.48,4.29H10.13z M8.16,29.51   h-4.2c-0.8,0-1.46-0.65-1.46-1.46V17.92c0-0.8,0.65-1.45,1.46-1.45h8.64c0.01,0,0.01,0,0.01,0s0.01,0,0.01,0h6.43L8.16,29.51z    M9.46,29.51l10.89-13.05h5.74L15.2,29.51h-0.21h-4.74H9.46z M14.48,30.51v3.62h-3.74v-3.62H14.48z M8.16,48.18h-4.2   c-0.8,0-1.46-0.65-1.46-1.46V36.59c0-0.8,0.65-1.46,1.46-1.46h6.28c0,0,0,0,0,0h4.74c0,0,0,0,0,0h4.07L8.16,48.18z M17.43,58.99   c0.59,0,1.07,0.48,1.07,1.07v2.32H6.73v-2.32c0-0.59,0.48-1.07,1.07-1.07h2.44h4.74H17.43z M10.74,57.99v-8.81h3.74v8.81H10.74z    M15.2,48.18h-0.21h-4.74H9.46l10.89-13.05h5.74L15.2,48.18z M16.5,48.18l10.9-13.05h8.28l-10.9,13.05H16.5z M26.08,48.18   l10.89-13.05h5.74L31.82,48.18H26.08z M33.12,48.18l10.9-13.05h6.16c0,0,0,0,0,0h2.13L41.4,48.18H33.12z M50.67,34.13v-3.62h3.74   v3.62H50.67z M57.36,58.99c0.59,0,1.07,0.48,1.07,1.07v2.32H46.66v-2.32c0-0.59,0.48-1.07,1.07-1.07H57.36z M50.67,57.99v-8.81   h3.74v8.81H50.67z M62.04,35.13c0.8,0,1.46,0.65,1.46,1.46v10.14c0,0.8-0.65,1.46-1.46,1.46h-7.13h-4.74h-0.43l10.9-13.05H62.04z    M59.34,35.13L48.44,48.18H42.7l10.9-13.05h1.31H59.34z M54.92,29.51h-4.74h-0.43l10.89-13.05h1.41c0.8,0,1.46,0.65,1.46,1.45   v10.14c0,0.8-0.65,1.46-1.46,1.46H54.92z"/><path d="M12.61,5.43c-1.37,0-2.48,1.11-2.48,2.48c0,1.37,1.11,2.48,2.48,2.48c1.37,0,2.48-1.11,2.48-2.48   C15.09,6.54,13.98,5.43,12.61,5.43z M12.61,9.39c-0.82,0-1.48-0.66-1.48-1.48s0.66-1.48,1.48-1.48s1.48,0.66,1.48,1.48   S13.43,9.39,12.61,9.39z"/><path d="M52.55,5.43c-1.37,0-2.48,1.11-2.48,2.48c0,1.37,1.11,2.48,2.48,2.48c1.37,0,2.48-1.11,2.48-2.48   C55.03,6.54,53.91,5.43,52.55,5.43z M52.55,9.39c-0.82,0-1.48-0.66-1.48-1.48s0.66-1.48,1.48-1.48s1.48,0.66,1.48,1.48   S53.36,9.39,52.55,9.39z"/></g></svg>